<svg xmlns="http://www.w3.org/2000/svg" viewBox="0 0 117 36" fill="none" height="28" width="91" class="css-152smmh"><path d="M11.59 10.73.75 4.43a.5.5 0 0 0-.75.44V22.4c0 .18.1.34.25.43l4.05 2.38a.5.5 0 0 0 .75-.43V13.34a.2.2 0 0 1 .3-.17l6.25 3.58a2 2 0 0 0 2-.01l6.1-3.57a.2.2 0 0 1 .3.17v5.6a1 1 0 0 1-.48.85l-6.28 3.86a.5.5 0 0 0-.24.43v5.64c0 .18.09.34.23.43l8.23 5.2a2 2 0 0 0 2.1.02l10.46-6.2a2 2 0 0 0 .98-1.73V16.63a.5.5 0 0 0-.76-.43l-3.31 2a2 2 0 0 0-.97 1.7v5.43a.5.5 0 0 1-.25.43l-6.19 3.65a2 2 0 0 1-2.04-.01l-3.33-2a.5.5 0 0 1-.02-.84l6.02-3.97a2 2 0 0 0 .9-1.67V4.87a.5.5 0 0 0-.75-.43l-10.7 6.29a2 2 0 0 1-2.01 0Z" fill="#007FFF"></path></svg>